<?xml version="1.0" encoding="iso-8859-1"?>
<!-- Generator: Adobe Illustrator 16.0.0, SVG Export Plug-In . SVG Version: 6.00 Build 0)  -->
<!DOCTYPE svg PUBLIC "-//W3C//DTD SVG 1.1//EN" "http://www.w3.org/Graphics/SVG/1.1/DTD/svg11.dtd">
<svg version="1.1" id="&#x5716;&#x5C64;_1" xmlns="http://www.w3.org/2000/svg" xmlns:xlink="http://www.w3.org/1999/xlink" x="0px"
	 y="0px" width="287.602px" height="113.229px" viewBox="0 0 287.602 113.229" style="enable-background:new 0 0 287.602 113.229;"
	 xml:space="preserve">
<path style="fill-rule:evenodd;clip-rule:evenodd;fill:#E60012;" d="M0,16.16L16.232,0h48.757L81.29,16.16v51.97L65.15,83.965
	H16.129L0,68.13V16.16z M23.414,37.814c0.945-6.02,3.393-12.275,6.899-16.58H19.296l0.004,16.58H23.414z M9.057,68.262l-3.52-3.443
	V19.844l3.557-3.512L9.057,68.262z M19.3,46.85v24.72h-6.786l7.212,7.211h41.931l14.219-13.963l-0.015-8.906
	c-4.509,10.536-13.952,16.651-25.26,16.651c-14.212,0-25.934-10.037-27.455-25.73L19.3,46.85z M32.404,37.818
	c1.308-6.587,4.974-12.067,9.773-15.01c1.523,1.662,2.468,3.947,2.468,6.465c0,5.097-3.711,8.541-8.478,8.541L32.404,37.818z
	 M45.548,63.75c-7.126-2.192-12.335-7.853-13.46-16.995C39.815,48.531,45.019,54.648,45.548,63.75 M42.357,13.391
	c2.612-0.938,5.324-1.39,8.21-1.39c11.332,0,23.417,8.139,24.211,21.351l-8.11,0.006c-0.769-7.267-8.13-12.221-15.047-12.808
	c1.509,2.544,2.403,5.766,2.403,9.269c0,7.368-4.112,13.558-9.334,14.791c2.889,2.285,10.196,7.678,10.22,19.14
	c5.967-1.804,11.108-5.281,12.982-12.407l7.984-0.031V19.844L61.734,5.796H19.63l-6.214,6.205h22.847
	C36.263,12.001,40.654,12.001,42.357,13.391"/>
<path style="fill:#FFFFFF;" d="M140.919,103.861c-0.9,0.709-1.888-0.687-1.068-1.294c0.908-0.642,2.184-1.885,2.971-2.81
	c0.168-0.184,0.343-0.294,0.531-0.325c-0.405-0.254-0.591-0.735-0.269-1.182c0.411-0.533,0.717-1.088,0.855-1.594
	c0.118-0.437-0.05-0.805-0.566-0.805h-15.116c-0.356,0-0.518,0.161-0.574,0.493c-0.067,0.641,0.037,1.94,0.037,2.993
	c0,1.036-1.701,1.011-1.701,0c0-1.115-0.087-2.405,0-3.594c0.093-1.071,0.87-1.623,1.955-1.623h6.885v-1.736
	c0-0.99,1.681-1.039,1.681,0v1.736h7.039c1.422,0,2.135,1,2.135,2.244c0,0.991-0.506,2.123-1.209,2.933
	c-0.146,0.184-0.335,0.275-0.527,0.298c0.382,0.244,0.5,0.778,0.157,1.236C143.277,101.861,141.896,103.114,140.919,103.861
	 M138.708,102.826c1.312,2.503,4.873,6.396,7.684,7.996c0.871,0.496,0.048,1.93-0.864,1.467c-2.117-1.09-4.797-3.635-6.121-5.554
	c0.057,2.164-0.605,4.741-2.455,5.95c-0.797,0.51-1.783,0.605-2.77,0.51c-0.972-0.112-2.265-0.51-3.53-1.134
	c-0.948-0.47-0.171-1.975,0.746-1.479c1.02,0.502,1.86,0.806,2.869,0.967c0.697,0.118,1.35,0.043,1.866-0.302
	c1.434-1.033,1.767-3.56,1.602-5.146c-3.344,2.646-7.083,4.894-11.598,6.105c-0.963,0.268-1.438-1.196-0.467-1.512
	c4.265-1.405,8.173-3.506,11.641-6.479c-0.115-0.465-0.306-0.916-0.54-1.409c-3.165,2.277-6.29,4.032-10.209,5.329
	c-1.014,0.349-1.584-1.105-0.619-1.459c3.767-1.373,6.963-3.008,9.979-5.389c-0.231-0.423-0.546-0.843-0.909-1.199
	c-2.888,1.8-5.247,2.885-8.018,3.697c-1.159,0.367-1.568-1.193-0.582-1.531c2.711-0.872,5.027-1.925,7.615-3.558h-5.106
	c-1.038,0-1.018-1.647,0-1.647h13.372c0.984,0,1.012,1.647,0,1.647h-5.568l-0.381,0.336
	C137.408,100.35,137.996,101.46,138.708,102.826"/>
<path style="fill:#FFFFFF;" d="M175.732,107.37c-0.944-2.357-1.753-4.045-2.874-6.122c-0.623-1.049,0.845-1.859,1.43-0.822
	c1.232,2.167,2.083,4.1,3.027,6.389C177.753,107.905,176.194,108.511,175.732,107.37 M179.738,110.906
	c-0.705,1.61-1.999,2.369-3.864,2.271c-0.857-0.025-2.124-0.304-3.441-0.776c-1.271-0.471-0.641-2.262,0.604-1.795
	c1.321,0.49,2.034,0.782,2.932,0.819c1.033,0.082,1.785-0.329,2.192-1.211c1.376-3.094,1.449-8.017,1.476-13.279
	c0-0.52-0.211-0.729-0.795-0.729h-5.538c-0.403,1.361-1.017,2.654-1.611,3.816c-0.59,1.087-2.209,0.309-1.553-0.828
	c1.277-2.144,1.893-4.263,2.147-6.555c0.146-1.242,1.857-1.011,1.746,0.196c-0.08,0.533-0.176,1.084-0.283,1.646h5.618
	c1.31,0,2.027,0.873,2.027,2.069C181.395,102.215,181.265,107.427,179.738,110.906 M168.042,104.289h-4.994v5.349
	c0,0.406,0.216,0.601,0.608,0.601h3.851c0.376,0,0.535-0.151,0.535-0.571V104.289z M167.506,96.656h-3.871
	c-0.418,0-0.588,0.164-0.588,0.566v5.327h4.994v-5.364C168.042,96.82,167.936,96.656,167.506,96.656 M167.833,111.882h-4.531
	c-1.13,0-1.935-0.661-1.935-1.909V96.838c0-1.093,0.729-1.839,1.798-1.839h1.388c0.217-0.772,0.429-1.631,0.571-2.325
	c0.273-1.249,1.973-0.831,1.708,0.362c-0.131,0.602-0.289,1.279-0.487,1.963h1.68c1.275,0,1.764,0.897,1.764,2.028v12.945
	C169.788,111.096,169.008,111.882,167.833,111.882"/>
<path style="fill:#FFFFFF;" d="M215.15,111.701c-0.777-1.515-1.708-3.144-2.671-4.613c-0.622-0.928,0.708-1.759,1.319-0.86
	c1.012,1.46,1.937,3.086,2.81,4.725C217.149,111.996,215.674,112.7,215.15,111.701 M206.98,109.704
	c-0.305-1.146-0.598-2.164-0.993-3.36c-0.35-1.057,1.211-1.449,1.516-0.496c0.376,1.183,0.683,2.222,1.008,3.441
	C208.817,110.414,207.251,110.722,206.98,109.704 M205.899,100.287h-3.348c-0.378,0-0.52,0.11-0.52,0.546v1.853
	c0,0.377,0.119,0.489,0.562,0.489h3.358c0.347,0,0.459-0.08,0.459-0.489v-1.853C206.411,100.426,206.264,100.287,205.899,100.287
	 M212.004,111.05c-0.303,0.76-0.855,1.281-1.895,1.281h-6.37c-1.312,0-1.993-0.664-1.993-1.931v-4.01c0-1.158,1.618-1.187,1.618,0
	v3.721c0,0.442,0.198,0.629,0.725,0.629h5.648c0.449,0,0.728-0.2,0.858-0.501c0.179-0.51,0.254-1.04,0.322-1.776
	c0.093-1.13,1.682-1.02,1.561,0.191C212.366,109.667,212.259,110.4,212.004,111.05 M206.118,104.815h-3.733
	c-1.523,0-2.012-0.451-2.012-1.842v-2.354c0-1.496,0.43-1.987,1.972-1.987h3.804c1.449,0,1.918,0.471,1.918,1.84v2.452
	C208.066,104.317,207.543,104.815,206.118,104.815 M200.686,97.482c-1.152,0-1.152-1.63,0-1.63h7.049c1.11,0,1.11,1.63,0,1.63
	H200.686z M215.868,97.028c-0.638-1.049-1.206-1.925-1.888-3.086c0.15,0.517-0.081,0.962-0.518,0.962h-3.135
	c0.269,1.84,0.738,3.538,1.46,5.066c0.578-0.958,1.166-2.05,1.724-3.378c0.389-0.955,1.81-0.346,1.419,0.629
	c-0.646,1.575-1.326,2.915-2.244,4.406c0.598,0.939,1.086,1.6,1.733,2.188c0.306,0.307,0.511,0.26,0.65-0.147
	c0.285-0.744,0.441-1.547,0.52-2.304c0.122-1.165,1.681-1.016,1.529,0.14c-0.149,1.181-0.341,2.281-0.754,3.188
	c-0.545,1.242-1.818,1.274-2.854,0.487c-0.753-0.585-1.394-1.483-1.81-2.085c-0.811,1.01-1.686,1.965-2.573,2.723
	c-0.883,0.734-1.808-0.477-1.113-1.125c1.058-0.966,1.892-1.886,2.794-3.064c-1.091-2.054-1.855-4.532-2.129-6.724h-8.517
	c-0.514,0-0.679,0.199-0.679,0.662v2.645c0,2.262-0.384,4.903-1.407,7.426c-0.432,1.04-1.99,0.426-1.533-0.663
	c0.959-2.381,1.324-4.501,1.324-6.763v-2.879c0-1.413,0.634-2.015,1.899-2.015h8.699c-0.046-0.32-0.097-0.644-0.122-0.932
	c-0.118-1.058,1.491-1.221,1.601-0.162c0.056,0.374,0.07,0.745,0.102,1.094h3.54l-0.146-0.196c-0.613-0.927,0.787-1.75,1.368-0.826
	c0.795,1.223,1.646,2.609,2.383,3.854C217.732,97.096,216.414,97.902,215.868,97.028 M197.81,111.701
	c-0.54,0.915-1.938,0.181-1.368-0.829c0.875-1.543,1.671-3.019,2.472-4.6c0.49-0.969,1.868-0.192,1.41,0.699
	C199.554,108.558,198.735,110.139,197.81,111.701"/>
<path style="fill:#FFFFFF;" d="M243.862,95.731c-0.525-0.23-1.109-0.52-1.739-0.779c-0.544,0.287-1.093,0.569-1.623,0.793
	c-0.951,0.44-1.49-0.764-0.539-1.189c0.152-0.075,0.311-0.165,0.506-0.24c-0.258-0.089-0.497-0.193-0.702-0.269
	c-0.966-0.292-0.469-1.569,0.444-1.232c0.567,0.183,1.159,0.422,1.742,0.655c0.425-0.26,0.857-0.543,1.273-0.857
	c0.873-0.626,1.672,0.572,0.859,1.168c-0.222,0.107-0.406,0.225-0.598,0.369c0.353,0.146,0.648,0.287,0.946,0.426
	C245.256,94.981,244.689,96.154,243.862,95.731 M243.768,98.841c-0.447-0.162-1.109-0.444-1.817-0.728
	c-0.604,0.329-1.25,0.667-1.791,0.899c-0.917,0.421-1.464-0.762-0.548-1.211c0.225-0.117,0.441-0.21,0.692-0.319
	c-0.191-0.082-0.344-0.149-0.516-0.193c-0.905-0.323-0.466-1.558,0.44-1.228c0.523,0.158,1.038,0.374,1.555,0.565
	c0.403-0.237,0.802-0.495,1.16-0.755c0.872-0.585,1.715,0.543,0.895,1.137c-0.137,0.07-0.283,0.154-0.452,0.28
	c0.357,0.151,0.659,0.257,0.922,0.372C245.163,98.041,244.62,99.221,243.768,98.841 M236.576,106.676c0,0.63,0.26,0.75,0.661,0.75
	h9.736c0.544,0,0.716-0.145,0.716-0.75H236.576z M247.689,104.594h-11.113v0.734h11.113V104.594z M246.973,102.549h-9.736
	c-0.464,0-0.661,0.11-0.661,0.68h11.113C247.689,102.642,247.517,102.549,246.973,102.549 M251.338,103.603
	c-0.563,0.968-1.896,0.184-1.348-0.751c0.455-0.702,0.688-1.182,0.898-1.743c0.143-0.354,0-0.538-0.366-0.538h-16.212
	c-0.446,0-0.646,0.212-0.646,0.613v1.931c0,0.944-1.449,0.91-1.449,0v-2.471c0-0.804,0.604-1.346,1.363-1.346l-0.164-4.346
	c-0.024-0.849,0.401-1.455,1.203-1.67c1.135-0.314,2.307-0.67,3.354-1.058c0.889-0.362,1.461,0.938,0.501,1.272
	c-1.008,0.343-2.231,0.729-2.963,0.91c-0.402,0.096-0.491,0.266-0.491,0.545h3.391c0.886,0,0.854,1.321,0,1.321h-3.319l0.018,0.755
	h3.233c0.875,0,0.901,1.279,0,1.279h-3.16l0.021,0.938h14.045v-0.901h-3.615c-0.857,0-0.857-1.295,0-1.295h3.615v-0.795h-3.582
	c-0.891,0-0.891-1.272,0-1.272h3.582V94.69c0-0.419-0.129-0.541-0.501-0.541h-3.256c-0.871,0-0.849-1.335,0-1.335h3.612
	c1.131,0,1.723,0.503,1.723,1.544v4.887h0.317c1.095,0,1.679,0.868,1.35,1.863C252.149,102.026,251.781,102.852,251.338,103.603
	 M252.399,108.817c-0.041,0.589-0.214,1.48-0.335,1.923c-0.283,1.141-1.111,1.734-2.313,1.822c-1.247,0.124-2.49,0.124-3.842,0
	c-1.407-0.088-2-0.73-2-2.022v-1.742h-3.299c-0.382,3.228-2.895,4.122-7.871,4.122c-1.093,0-1.122-1.465,0-1.442
	c4.096,0.049,6.078-0.57,6.237-2.68h-2.158c-1.259,0-1.915-0.523-1.915-1.655v-4.219c0-1.063,0.568-1.655,1.837-1.655h10.758
	c1.248,0,1.749,0.492,1.749,1.605v4.172c0,1.183-0.628,1.752-1.87,1.752h-1.836v1.456c0,0.634,0.185,0.866,0.841,0.91
	c1.071,0.098,2.104,0.098,2.992,0c0.694-0.044,0.992-0.276,1.177-1.026c0.106-0.312,0.192-0.938,0.242-1.412
	c0.053-1.037,1.652-0.946,1.586,0.092H252.399z"/>
<path style="fill-rule:evenodd;clip-rule:evenodd;fill:#FFFFFF;" d="M105.407,80.377c0,1.063-0.056,1.7-1.353,1.7
	c-0.28,0-0.457,0-0.457,0.165c0,0.146,0.226,0.146,0.339,0.146h4.91c0.109,0,0.338,0,0.338-0.146c0-0.165-0.173-0.165-0.453-0.165
	c-1.304,0-1.36-0.638-1.36-1.7v-4.582c0-1.064,0.056-1.697,1.36-1.697c0.28,0,0.453,0,0.453-0.174c0-0.14-0.229-0.14-0.338-0.14
	h-4.91c-0.113,0-0.339,0-0.339,0.14c0,0.174,0.177,0.174,0.457,0.174c1.297,0,1.353,0.633,1.353,1.697V80.377z"/>
<path style="fill-rule:evenodd;clip-rule:evenodd;fill:#FFFFFF;" d="M103.936,73.425c-0.594,0-0.679,0.313-0.679,0.498
	c0,0.529,0.517,0.529,0.797,0.529c0.965,0,1.007,0.3,1.007,1.342v4.582c0,1.047-0.042,1.349-1.007,1.349
	c-0.28,0-0.797,0-0.797,0.518c0,0.184,0.085,0.496,0.679,0.496h4.91c0.591,0,0.674-0.313,0.674-0.496
	c0-0.518-0.509-0.518-0.789-0.518c-0.977,0-1.016-0.302-1.016-1.349v-4.582c0-1.042,0.039-1.342,1.016-1.342
	c0.28,0,0.789,0,0.789-0.529c0-0.186-0.083-0.498-0.674-0.498H103.936z M107.449,74.142c-0.413,0.399-0.421,1.054-0.421,1.652v4.582
	c0,0.603,0.008,1.256,0.421,1.653h-2.12c0.416-0.397,0.416-1.051,0.416-1.653v-4.582c0-0.599,0-1.253-0.416-1.652H107.449z"/>
<path style="fill-rule:evenodd;clip-rule:evenodd;fill:#FFFFFF;" d="M118.104,73.505c-0.03-0.08-0.084-0.282-0.221-0.282
	c-0.237,0-0.049,0.632-0.65,0.632c-0.101,0-0.298-0.03-0.406-0.063c-0.531-0.142-1.12-0.221-1.688-0.221
	c-2.891,0-4.87,1.998-4.87,4.533c0,1.373,0.976,4.495,5.289,4.495c3.134,0,3.789-2.229,3.789-2.324c0-0.064-0.24-0.483-0.559,0.196
	c-0.405,1.146-1.877,1.818-3.167,1.818c-2.626,0-3.143-2.175-3.143-4.085c0-0.848,0.158-4.326,2.87-4.326
	c0.918,0,2.281,0.458,3.413,2.31c0.027,0.069,0.101,0.203,0.221,0.203c0.3,0,0.08-0.342,0.071-0.405L118.104,73.505z"/>
<path style="fill-rule:evenodd;clip-rule:evenodd;fill:#FFFFFF;" d="M117.404,73.33c-0.048,0.168-0.054,0.168-0.17,0.168
	l-0.332-0.039c-0.565-0.161-1.175-0.244-1.762-0.244c-3.024,0-5.213,2.056-5.213,4.89c0,1.678,1.179,4.853,5.632,4.853
	c3.26,0,4.133-2.355,4.133-2.681c0-0.196-0.18-0.472-0.445-0.526c-0.202-0.051-0.509,0.007-0.768,0.568
	c-0.365,1.021-1.733,1.617-2.857,1.617c-1.883,0-2.801-1.221-2.801-3.73c0-0.927,0.175-3.972,2.527-3.972
	c0.679,0,1.992,0.277,3.12,2.147l-0.035-0.064c0.077,0.2,0.27,0.435,0.55,0.435c0.255,0,0.374-0.135,0.436-0.22
	c0.138-0.237,0.024-0.509-0.036-0.637l-0.974-2.533c-0.035-0.125-0.161-0.496-0.525-0.496
	C117.549,72.865,117.441,73.2,117.404,73.33 M110.612,78.104c0-1.902,1.188-3.389,2.963-3.937c-1.024,0.86-1.438,2.476-1.438,4.037
	c0,1.929,0.524,3.041,1.247,3.671C111.262,81.102,110.612,79.227,110.612,78.104 M117.884,73.897
	c0.081,0.21,0.221,0.565,0.427,1.118c-0.314-0.348-0.626-0.622-0.935-0.837C117.621,74.142,117.79,74.032,117.884,73.897"/>
<path style="fill-rule:evenodd;clip-rule:evenodd;fill:#FFFFFF;" d="M126.18,79.101l0.519,1.371
	c0.121,0.277,0.253,0.654,0.253,0.952c0,0.599-0.649,0.653-1.167,0.653c-0.144,0-0.461,0-0.461,0.165
	c0,0.146,0.196,0.146,0.307,0.146h5.365c0.128,0,0.19,0,0.19-0.146c0-0.165-0.322-0.165-0.443-0.165
	c-0.909,0-1.392-0.125-2.056-1.826l-2.535-6.52c-0.257-0.606-0.213-0.587-0.311-0.587c-0.161,0-0.825,0.968-1.873,1.185
	c-0.32,0.092-0.308,0.245,0.024,0.301c0.23,0.033,0.335,0.157,0.472,0.311l-1.768,4.244c-1.095,2.555-1.634,2.893-2.45,2.893
	c-0.121,0-0.285,0-0.285,0.165c0,0.146,0.164,0.146,0.254,0.146h3.337c0.096,0,0.216,0,0.216-0.138c0-0.139-0.139-0.174-0.27-0.174
	c-0.604,0-1.1-0.245-1.1-0.869c0-0.439,0.391-1.303,0.551-1.724l0.156-0.384H126.18z M126.069,78.791h-2.826l1.433-3.576h0.029
	L126.069,78.791z"/>
<path style="fill:#FFFFFF;" d="M125.855,72.792c-0.19,0-0.309,0.115-0.53,0.321c-0.302,0.271-0.801,0.741-1.423,0.863
	c-0.444,0.131-0.509,0.368-0.509,0.509v0.037c0.01,0.138,0.092,0.387,0.555,0.453c0.037,0.013,0.078,0.019,0.107,0.048
	c-0.168,0.394-1.676,4.019-1.676,4.019c-1.071,2.5-1.523,2.683-2.133,2.683c-0.566,0-0.625,0.356-0.625,0.518
	c0,0.122,0.042,0.496,0.594,0.496h3.337c0.517,0,0.555-0.37,0.555-0.488c0-0.266-0.187-0.525-0.609-0.525
	c-0.751,0-0.751-0.393-0.751-0.518c0-0.276,0.256-0.919,0.406-1.306l0.109-0.284c0,0,0.039-0.082,0.073-0.163h2.611
	c0.116,0.315,0.443,1.147,0.443,1.147c0.14,0.347,0.221,0.637,0.221,0.822c0,0.107,0,0.301-0.825,0.301
	c-0.524,0-0.799,0.169-0.799,0.518c0,0.146,0.07,0.496,0.645,0.496h5.365c0.467,0,0.532-0.313,0.532-0.496
	c0-0.239-0.14-0.518-0.785-0.518c-0.738,0-1.114,0-1.734-1.602l-2.542-6.523c-0.003-0.003-0.142-0.34-0.142-0.34
	C126.218,72.988,126.14,72.792,125.855,72.792 M125.748,73.67c0.043,0.092,0.092,0.209,0.092,0.209l2.547,6.513
	c0.319,0.854,0.629,1.348,0.981,1.638h-2.3c0.132-0.139,0.235-0.332,0.235-0.605c0-0.295-0.108-0.663-0.291-1.095l-0.598-1.582
	h-3.16c0.357-0.871,1.602-3.879,1.602-3.879l-0.133-0.163c-0.061-0.063-0.127-0.131-0.201-0.194
	C125.072,74.278,125.491,73.909,125.748,73.67 M122.054,81.222c0.012,0.332,0.131,0.604,0.333,0.808h-1.002
	C121.615,81.847,121.83,81.577,122.054,81.222"/>
<path style="fill:#FFFFFF;" d="M124.356,75.083l-1.623,4.063h3.835l-1.857-4.869L124.356,75.083z M124.682,76.13
	c0.303,0.784,0.678,1.763,0.893,2.302h-1.821C123.977,77.89,124.367,76.914,124.682,76.13"/>
<path style="fill-rule:evenodd;clip-rule:evenodd;fill:#FFFFFF;" d="M139.087,73.505c-0.031-0.08-0.081-0.282-0.221-0.282
	c-0.237,0-0.048,0.632-0.651,0.632c-0.101,0-0.291-0.03-0.404-0.063c-0.533-0.142-1.124-0.221-1.688-0.221
	c-2.892,0-4.87,1.998-4.87,4.533c0,1.373,0.979,4.495,5.289,4.495c3.131,0,3.787-2.229,3.787-2.324c0-0.064-0.242-0.483-0.567,0.196
	c-0.394,1.146-1.875,1.818-3.158,1.818c-2.622,0-3.139-2.175-3.139-4.085c0-0.848,0.158-4.326,2.856-4.326
	c0.927,0,2.29,0.458,3.411,2.31c0.03,0.069,0.109,0.203,0.233,0.203c0.297,0,0.084-0.342,0.073-0.405L139.087,73.505z"/>
<path style="fill-rule:evenodd;clip-rule:evenodd;fill:#FFFFFF;" d="M138.384,73.33c-0.052,0.168-0.052,0.168-0.168,0.168
	l-0.332-0.039c-0.569-0.161-1.173-0.244-1.761-0.244c-3.022,0-5.214,2.056-5.214,4.89c0,1.678,1.173,4.853,5.633,4.853
	c3.256,0,4.125-2.355,4.125-2.681c0-0.196-0.175-0.47-0.428-0.526c-0.21-0.051-0.516,0.007-0.775,0.568
	c-0.366,1.021-1.732,1.617-2.86,1.617c-1.888,0-2.806-1.221-2.806-3.73c0-0.927,0.184-3.972,2.524-3.972
	c0.684,0,1.993,0.277,3.127,2.147l-0.032-0.064c0.075,0.2,0.264,0.435,0.548,0.435c0.252,0,0.382-0.135,0.427-0.22
	c0.15-0.237,0.032-0.509-0.025-0.634l-0.979-2.54c-0.03-0.121-0.162-0.492-0.522-0.492C138.534,72.865,138.421,73.2,138.384,73.33
	 M131.591,78.104c0-1.902,1.191-3.389,2.97-3.937c-1.028,0.86-1.441,2.476-1.441,4.037c0,1.929,0.526,3.041,1.249,3.671
	C132.238,81.102,131.591,79.227,131.591,78.104 M138.866,73.897c0.077,0.21,0.221,0.565,0.424,1.126
	c-0.306-0.351-0.621-0.63-0.936-0.845C138.601,74.142,138.764,74.032,138.866,73.897"/>
<path style="fill-rule:evenodd;clip-rule:evenodd;fill:#FFFFFF;" d="M147.233,73.572c-3.198,0-5.221,1.853-5.221,4.536
	c0,2.713,2.185,4.491,5.142,4.491c2.97,0,5.239-1.724,5.239-4.491C152.393,75.418,150.215,73.572,147.233,73.572 M147.179,82.29
	c-2.527,0-2.954-2.266-2.954-4.182c0-3.218,1.325-4.229,2.98-4.229c2.564,0,2.984,2.435,2.984,4.229
	C150.19,79.922,149.743,82.29,147.179,82.29"/>
<path style="fill:#FFFFFF;" d="M141.672,78.109c0,2.855,2.255,4.848,5.482,4.848c3.291,0,5.582-1.992,5.582-4.848
	c0-2.839-2.312-4.895-5.504-4.895C143.908,73.215,141.672,75.184,141.672,78.109 M142.362,78.109c0-2.539,1.91-4.191,4.871-4.191
	c2.838,0,4.813,1.729,4.813,4.191c0,2.438-2.007,4.137-4.892,4.137C144.327,82.246,142.362,80.548,142.362,78.109"/>
<path style="fill:#FFFFFF;" d="M143.881,78.109c0,3.017,1.107,4.534,3.298,4.534c1.525,0,3.345-0.778,3.345-4.534
	c0-3.783-1.799-4.582-3.318-4.582C145.691,73.527,143.881,74.326,143.881,78.109 M144.567,78.109c0-2.604,0.869-3.876,2.639-3.876
	c1.776,0,2.637,1.272,2.637,3.876c0,2.58-0.874,3.826-2.663,3.826C145.395,81.936,144.567,80.724,144.567,78.109"/>
<path style="fill-rule:evenodd;clip-rule:evenodd;fill:#FFFFFF;" d="M186.081,77.078c0.818,0.033,1.493,0.033,1.962,0.033
	c2.129,0,5.253-0.229,5.253-2.761c0-1.458-1.327-2.841-4.841-2.841h-6.729c-0.135,0-0.42,0-0.42,0.188
	c0,0.207,0.214,0.207,0.579,0.207c1.623,0,1.704,0.81,1.704,2.14v5.788c0,1.331-0.081,2.138-1.704,2.138
	c-0.365,0-0.579,0-0.579,0.208c0,0.187,0.285,0.187,0.42,0.187h6.557c0.185,0,0.47,0,0.47-0.196c0-0.198-0.185-0.198-0.354-0.198
	h-0.518c-1.689,0-1.786-0.729-1.8-2.083V77.078z M186.081,74.241c0-1.592,0-2.337,1.962-2.337c1.372,0,2.468,0.557,2.468,2.433
	c0,2.138-1.518,2.382-2.598,2.382c-0.592,0-1.272-0.016-1.832-0.037V74.241z"/>
<path style="fill:#FFFFFF;" d="M181.726,71.149c-0.624,0-0.76,0.289-0.76,0.548c0,0.563,0.572,0.563,0.919,0.563
	c0.834,0,1.07,0.232,1.168,0.398c0.182,0.29,0.195,0.784,0.195,1.386v5.788c0,1.349-0.064,1.786-1.363,1.786
	c-0.347,0-0.919,0-0.919,0.561c0,0.245,0.136,0.542,0.76,0.542h6.557l0.389-0.04c0.315-0.082,0.431-0.316,0.431-0.513
	c0-0.254-0.126-0.55-0.704-0.55h-0.518c-1.381,0-1.454-0.419-1.471-1.736V77.44c0.479,0.005,1.633,0.028,1.633,0.028
	c1.538,0,5.599,0,5.599-3.118c0-0.752-0.377-3.201-5.187-3.201H181.726z M188.455,71.867c2.825,0,4.506,0.926,4.506,2.483
	c0,1.658-1.512,2.406-4.918,2.406l-2.312-0.034l-0.005,0.355v2.809c0.012,0.962,0.106,1.721,0.75,2.123h-3.271
	c0.708-0.454,0.723-1.321,0.723-2.178v-5.788c0-0.726-0.018-1.306-0.294-1.76c-0.107-0.173-0.255-0.306-0.434-0.417H188.455z"/>
<path style="fill:#FFFFFF;" d="M185.726,74.241v2.792l2.187,0.035c1.951,0,2.938-0.911,2.938-2.731c0-1.826-0.968-2.787-2.808-2.787
	C185.726,71.55,185.726,72.679,185.726,74.241 M186.41,74.241c0-1.599,0-1.981,1.633-1.981c1.449,0,2.129,0.664,2.129,2.077
	c0,1.425-0.68,2.027-2.259,2.027c0,0-1.052-0.017-1.503-0.027V74.241z"/>
<path style="fill-rule:evenodd;clip-rule:evenodd;fill:#FFFFFF;" d="M211.42,73.547c-3.207,0-5.229,1.855-5.229,4.543
	c0,2.707,2.181,4.487,5.142,4.487c2.974,0,5.234-1.729,5.234-4.487C216.567,75.397,214.387,73.547,211.42,73.547 M211.349,82.259
	c-2.521,0-2.946-2.266-2.946-4.169c0-3.222,1.329-4.235,2.986-4.235c2.557,0,2.976,2.429,2.976,4.235S213.917,82.259,211.349,82.259
	"/>
<path style="fill:#FFFFFF;" d="M205.85,78.09c0,2.851,2.258,4.836,5.482,4.836c3.283,0,5.576-1.985,5.576-4.836
	c0-2.837-2.305-4.897-5.488-4.897C208.088,73.192,205.85,75.163,205.85,78.09 M206.532,78.09c0-2.546,1.921-4.192,4.889-4.192
	c2.831,0,4.806,1.725,4.806,4.192c0,2.471-1.966,4.134-4.894,4.134C208.506,82.224,206.532,80.523,206.532,78.09"/>
<path style="fill:#FFFFFF;" d="M208.059,78.09c0,3.003,1.109,4.525,3.289,4.525c1.529,0,3.357-0.783,3.357-4.525
	c0-1.227-0.192-2.218-0.567-2.957c-0.548-1.083-1.47-1.635-2.75-1.635C209.872,73.498,208.059,74.298,208.059,78.09 M208.743,78.09
	c0-2.607,0.866-3.877,2.646-3.877c1.011,0,1.713,0.405,2.144,1.246c0.324,0.639,0.489,1.525,0.489,2.631
	c0,2.572-0.871,3.822-2.673,3.822C209.57,81.912,208.743,80.698,208.743,78.09"/>
<path style="fill-rule:evenodd;clip-rule:evenodd;fill:#FFFFFF;" d="M221.136,78.177c0.656,0.025,1.19,0.025,1.564,0.025
	c1.683,0,4.164-0.185,4.164-2.193c0-1.154-1.059-2.247-3.846-2.247h-5.328c-0.111,0-0.333,0-0.333,0.147
	c0,0.157,0.172,0.157,0.451,0.157c1.306,0,1.354,0.644,1.354,1.699v4.583c0,1.07-0.049,1.703-1.354,1.703
	c-0.279,0-0.451,0-0.451,0.171c0,0.142,0.222,0.142,0.333,0.142h5.195c0.154,0,0.375,0,0.375-0.158c0-0.154-0.149-0.154-0.286-0.154
	h-0.412c-1.34,0-1.42-0.583-1.427-1.655V78.177z M221.136,75.932c0-1.27,0-1.865,1.564-1.865c1.084,0,1.956,0.456,1.956,1.928
	c0,1.699-1.213,1.894-2.066,1.894c-0.473,0-0.998-0.021-1.454-0.028V75.932z"/>
<path style="fill:#FFFFFF;" d="M217.691,73.411c-0.595,0-0.679,0.306-0.679,0.498c0,0.521,0.518,0.521,0.797,0.521
	c0.972,0,1.011,0.275,1.011,1.335v4.583c0,1.075-0.039,1.349-1.011,1.349c-0.279,0-0.797,0-0.797,0.524
	c0,0.182,0.084,0.491,0.679,0.491h5.195c0.591,0,0.717-0.276,0.717-0.506c0-0.192-0.084-0.51-0.628-0.51h-0.412
	c-1.025,0-1.077-0.273-1.083-1.306v-1.857c0.422,0.003,1.221,0.017,1.221,0.017c1.231,0,4.503,0,4.503-2.543
	c0-0.737-0.367-1.398-1.024-1.851c-0.736-0.5-1.796-0.746-3.16-0.746H217.691z M223.019,74.112c1.213,0,2.175,0.225,2.776,0.629
	c0.479,0.33,0.73,0.766,0.73,1.267c0,1.271-1.188,1.833-3.825,1.833l-1.901-0.033l-0.004,0.368v2.221
	c0.004,0.682,0.06,1.253,0.441,1.612h-2.147c0.421-0.404,0.421-1.05,0.421-1.66v-4.583c0-0.601-0.013-1.243-0.421-1.653H223.019z"/>
<path style="fill:#FFFFFF;" d="M220.794,75.932v2.272l1.796,0.032c1.588,0,2.407-0.754,2.407-2.242c0-0.794-0.24-1.406-0.703-1.788
	c-0.378-0.327-0.922-0.488-1.594-0.488C220.794,73.718,220.794,74.69,220.794,75.932 M221.48,75.932c0-1.277,0-1.5,1.221-1.5
	c0.516,0,0.909,0.104,1.168,0.33c0.294,0.25,0.445,0.648,0.445,1.232c0,1.074-0.52,1.534-1.724,1.534c0,0-0.719-0.006-1.11-0.021
	V75.932z"/>
<path style="fill-rule:evenodd;clip-rule:evenodd;fill:#FFFFFF;" d="M229.662,80.349c0,1.071-0.054,1.703-1.359,1.703
	c-0.272,0-0.444,0-0.444,0.171c0,0.142,0.228,0.142,0.334,0.142h4.911c1.982,0,2.236,0.227,2.362,0.742
	c0.051,0.242,0.169,0.276,0.374-0.128l1.539-3.214c0-0.146-0.271-0.249-0.479,0.261c-0.71,1.17-1.998,2.026-3.512,2.026
	c-1.405,0-1.756-0.507-1.756-1.703v-2.447h1.426c1.354,0,1.59,0.864,1.59,1.271v0.446c0,0.158,0.349,0.397,0.349-0.142v-3.38
	c0-0.548-0.349-0.307-0.349-0.151v0.349c0,0.419-0.236,1.291-1.59,1.291h-1.426V75.55c0-0.901,0.112-1.483,1.307-1.483
	c1.628,0,3.078,0.922,3.461,1.655c0.27,0.492,0.55,0.41,0.339-0.07l-1.035-2.316c-0.146-0.401-0.308-0.178-0.322-0.143
	c-0.212,0.302-0.358,0.569-1.632,0.569h-5.557c-0.106,0-0.334,0-0.334,0.147c0,0.157,0.172,0.157,0.444,0.157
	c1.306,0,1.359,0.645,1.359,1.699V80.349z"/>
<path style="fill-rule:evenodd;clip-rule:evenodd;fill:#FFFFFF;" d="M235.068,73.065c-0.143,0.171-0.253,0.346-1.319,0.346h-5.557
	c-0.612,0-0.68,0.343-0.68,0.498c0,0.522,0.522,0.522,0.79,0.522c0.973,0,1.02,0.293,1.02,1.334v4.583
	c0,1.042-0.047,1.349-1.02,1.349c-0.268,0-0.79,0-0.79,0.525c0,0.146,0.067,0.489,0.68,0.489h4.911c1.919,0,1.97,0.224,2.026,0.479
	c0.086,0.354,0.286,0.429,0.397,0.446c0.344,0.043,0.533-0.342,0.62-0.502l1.575-3.288v-0.083c0-0.228-0.158-0.419-0.375-0.464
	c-0.113-0.019-0.5-0.054-0.764,0.586c-0.674,1.099-1.908,1.811-3.196,1.811c-1.211,0-1.41-0.332-1.41-1.349v-2.096h1.08
	c1.125,0,1.249,0.646,1.249,0.919v0.448c0,0.281,0.251,0.543,0.53,0.543c0.168,0,0.316-0.089,0.409-0.256l0.088-0.43v-3.38
	c0-0.681-0.444-0.7-0.497-0.7c-0.279,0-0.53,0.265-0.53,0.549v0.348c0,0.283-0.124,0.937-1.249,0.937h-1.08V75.55
	c0-0.845,0.072-1.118,0.961-1.118c1.538,0,2.849,0.857,3.167,1.463c0.274,0.512,0.604,0.568,0.813,0.47
	c0.096-0.058,0.386-0.267,0.132-0.863l-1.032-2.309c-0.136-0.363-0.352-0.445-0.513-0.449
	C235.27,72.743,235.116,72.934,235.068,73.065 M231.7,74.112c-0.356,0.351-0.409,0.891-0.409,1.438v4.799
	c0,0.815,0.208,1.342,0.623,1.661h-2.324c0.415-0.405,0.415-1.052,0.415-1.661v-4.583c0-0.602,0-1.243-0.415-1.653H231.7z
	 M234.651,77.25v0.977c-0.149-0.192-0.334-0.367-0.608-0.482C234.317,77.617,234.501,77.451,234.651,77.25 M236.269,81.275
	c-0.331,0.681-0.583,1.226-0.651,1.363c-0.158-0.25-0.437-0.399-0.847-0.495C235.319,81.956,235.826,81.668,236.269,81.275
	 M235.465,73.642c0.062,0.146,0.244,0.564,0.489,1.12c-0.353-0.284-0.818-0.532-1.331-0.719
	C235.05,73.974,235.285,73.831,235.465,73.642"/>
<path style="fill-rule:evenodd;clip-rule:evenodd;fill:#FFFFFF;" d="M253.762,80.349c0,1.071-0.048,1.703-1.349,1.703
	c-0.283,0-0.459,0-0.459,0.171c0,0.142,0.227,0.142,0.332,0.142h4.917c0.105,0,0.336,0,0.336-0.142c0-0.171-0.172-0.171-0.456-0.171
	c-1.304,0-1.349-0.632-1.349-1.703V75.85c0-0.597,0-1.783,0.863-1.783c0.928,0,2.197,0.84,2.678,1.494
	c0.072,0.091,0.229,0.342,0.364,0.342c0.3,0,0.089-0.291,0.062-0.363l-1.05-2.133c-0.13-0.418-0.298-0.347-0.43-0.126
	c-0.319,0.508-1.658,0.481-2.184,0.481h-2.579c-0.531,0-1.863,0.026-2.187-0.481c-0.133-0.221-0.297-0.292-0.427,0.126l-1.044,2.133
	c-0.039,0.072-0.245,0.363,0.05,0.363c0.135,0,0.289-0.251,0.355-0.342c0.487-0.654,1.756-1.494,2.685-1.494
	c0.87,0,0.87,1.187,0.87,1.783V80.349z"/>
<path style="fill-rule:evenodd;clip-rule:evenodd;fill:#FFFFFF;" d="M257.93,73.084c-0.088,0.152-0.472,0.326-1.797,0.326h-2.775
	c-1.318,0-1.706-0.174-1.802-0.326c-0.188-0.307-0.403-0.346-0.553-0.335c-0.327,0.043-0.438,0.416-0.482,0.541l-1.024,2.096
	c-0.067,0.108-0.233,0.363-0.093,0.623c0.056,0.093,0.174,0.242,0.448,0.242c0.287,0,0.479-0.264,0.595-0.426
	c0.487-0.661,1.663-1.394,2.444-1.394c0.383,0,0.526,0.392,0.526,1.418v4.499c0,1.075-0.035,1.349-1.004,1.349
	c-0.278,0-0.808,0-0.808,0.525c0,0.146,0.071,0.49,0.681,0.49h4.917c0.591,0,0.675-0.31,0.675-0.49c0-0.525-0.515-0.525-0.795-0.525
	c-0.964,0-1.013-0.307-1.013-1.349V75.85c0-1.026,0.146-1.418,0.526-1.418c0.796,0,1.968,0.732,2.414,1.341l0.039,0.054
	c0.111,0.168,0.31,0.425,0.589,0.425c0.281,0,0.396-0.142,0.442-0.242c0.142-0.246-0.015-0.515-0.078-0.623l-1.049-2.148
	c-0.017-0.072-0.138-0.445-0.473-0.488C258.339,72.738,258.125,72.777,257.93,73.084 M251.131,73.591
	c0.185,0.181,0.422,0.313,0.709,0.383c-0.445,0.184-0.885,0.435-1.255,0.736C250.855,74.146,251.117,73.622,251.131,73.591
	 M255.785,74.112c-0.384,0.497-0.396,1.344-0.396,1.737v4.499c0,0.609,0,1.256,0.415,1.661h-2.116
	c0.415-0.405,0.415-1.052,0.415-1.661V75.85c0-0.394-0.011-1.24-0.401-1.737H255.785z M258.368,73.597
	c0.039,0.082,0.271,0.57,0.549,1.122c-0.375-0.3-0.809-0.556-1.258-0.736C257.957,73.908,258.193,73.78,258.368,73.597"/>
<path style="fill-rule:evenodd;clip-rule:evenodd;fill:#FFFFFF;" d="M262.458,80.349c0,1.071-0.049,1.703-1.356,1.703
	c-0.278,0-0.448,0-0.448,0.171c0,0.142,0.228,0.142,0.335,0.142h4.913c0.105,0,0.332,0,0.332-0.142c0-0.171-0.166-0.171-0.458-0.171
	c-1.296,0-1.346-0.632-1.346-1.703v-4.583c0-1.055,0.05-1.699,1.346-1.699c0.292,0,0.458,0,0.458-0.157
	c0-0.147-0.227-0.147-0.332-0.147h-4.913c-0.107,0-0.335,0-0.335,0.147c0,0.157,0.17,0.157,0.448,0.157
	c1.308,0,1.356,0.645,1.356,1.699V80.349z"/>
<path style="fill-rule:evenodd;clip-rule:evenodd;fill:#FFFFFF;" d="M260.989,73.411c-0.596,0-0.674,0.306-0.674,0.498
	c0,0.521,0.515,0.521,0.786,0.521c0.976,0,1.017,0.294,1.017,1.335v4.583c0,1.042-0.041,1.349-1.017,1.349
	c-0.271,0-0.786,0-0.786,0.524c0,0.182,0.078,0.491,0.674,0.491h4.913c0.591,0,0.678-0.31,0.678-0.491
	c0-0.524-0.523-0.524-0.804-0.524c-0.962,0-1.006-0.307-1.006-1.349v-4.583c0-1.041,0.044-1.335,1.006-1.335
	c0.28,0,0.804,0,0.804-0.521c0-0.154-0.067-0.498-0.678-0.498H260.989z M264.498,74.112c-0.413,0.41-0.413,1.053-0.413,1.653v4.583
	c0,0.61,0,1.256,0.413,1.66h-2.11c0.406-0.404,0.406-1.05,0.406-1.66v-4.583c0-0.601,0-1.243-0.409-1.653H264.498z"/>
<path style="fill-rule:evenodd;clip-rule:evenodd;fill:#FFFFFF;" d="M269.576,80.349c0,1.071-0.05,1.703-1.349,1.703
	c-0.284,0-0.458,0-0.458,0.171c0,0.142,0.226,0.142,0.33,0.142h4.918c1.983,0,2.24,0.227,2.361,0.742
	c0.05,0.242,0.17,0.276,0.372-0.128l1.543-3.214c0-0.146-0.264-0.249-0.479,0.261c-0.723,1.17-2.003,2.026-3.515,2.026
	c-1.408,0-1.755-0.507-1.755-1.703v-2.447h1.432c1.354,0,1.58,0.864,1.58,1.271v0.446c0,0.158,0.344,0.397,0.344-0.142v-3.38
	c0-0.548-0.344-0.307-0.344-0.151v0.349c0,0.419-0.227,1.291-1.58,1.291h-1.432V75.55c0-0.901,0.107-1.483,1.313-1.483
	c1.616,0,3.059,0.922,3.456,1.655c0.27,0.492,0.555,0.41,0.332-0.07l-1.03-2.316c-0.143-0.401-0.301-0.178-0.321-0.143
	c-0.214,0.302-0.36,0.569-1.635,0.569h-5.562c-0.104,0-0.33,0-0.33,0.147c0,0.157,0.174,0.157,0.458,0.157
	c1.299,0,1.349,0.645,1.349,1.699V80.349z"/>
<path style="fill-rule:evenodd;clip-rule:evenodd;fill:#FFFFFF;" d="M274.975,73.06c-0.129,0.177-0.254,0.352-1.314,0.352h-5.562
	c-0.606,0-0.67,0.343-0.67,0.498c0,0.522,0.519,0.522,0.798,0.522c0.965,0,1.006,0.293,1.006,1.334v4.583
	c0,1.042-0.041,1.349-1.006,1.349c-0.279,0-0.798,0-0.798,0.525c0,0.146,0.063,0.489,0.67,0.489h4.918
	c1.912,0,1.964,0.224,2.029,0.479c0.074,0.354,0.28,0.429,0.399,0.446c0.344,0.043,0.528-0.342,0.608-0.502l1.576-3.288v-0.083
	c0-0.228-0.157-0.419-0.377-0.464c-0.104-0.019-0.493-0.054-0.759,0.586c-0.67,1.099-1.9,1.811-3.194,1.811
	c-1.206,0-1.415-0.332-1.415-1.349v-2.096h1.092c1.117,0,1.245,0.646,1.245,0.919v0.448c0,0.281,0.249,0.543,0.527,0.543
	c0.084,0,0.496-0.028,0.496-0.686v-3.38c0-0.657-0.412-0.7-0.496-0.7c-0.278,0-0.527,0.265-0.527,0.549v0.348
	c0,0.223-0.094,0.937-1.245,0.937h-1.092V75.55c0-0.845,0.086-1.118,0.973-1.118c1.534,0,2.837,0.857,3.159,1.463
	c0.277,0.512,0.607,0.581,0.814,0.47c0.097-0.058,0.392-0.267,0.128-0.863l-1.042-2.309c-0.122-0.362-0.332-0.445-0.489-0.449
	C275.195,72.743,275.031,72.928,274.975,73.06 M271.61,74.112c-0.354,0.351-0.407,0.891-0.407,1.438v4.799
	c0,0.815,0.213,1.342,0.621,1.661h-2.315c0.409-0.405,0.409-1.052,0.409-1.661v-4.583c0-0.602,0-1.243-0.409-1.653H271.61z
	 M274.562,77.255v0.972c-0.15-0.196-0.34-0.367-0.609-0.482C274.222,77.622,274.412,77.451,274.562,77.255 M276.187,81.275
	c-0.325,0.681-0.587,1.226-0.657,1.368c-0.156-0.255-0.437-0.401-0.844-0.5C275.232,81.956,275.738,81.668,276.187,81.275
	 M275.378,73.642c0.067,0.149,0.246,0.564,0.5,1.12c-0.369-0.284-0.827-0.532-1.348-0.719
	C274.969,73.974,275.206,73.831,275.378,73.642"/>
<path style="fill-rule:evenodd;clip-rule:evenodd;fill:#FFFFFF;" d="M285.289,73.425c-0.047-0.063-0.109-0.284-0.226-0.284
	c-0.142,0-0.142,0.164-0.193,0.305c-0.051,0.154-0.157,0.316-0.534,0.316c-0.391,0-1.092-0.215-1.797-0.215
	c-1.754,0-3.729,0.957-3.729,2.709c0,3.3,6.52,2.051,6.52,4.397c0,1.085-1.072,1.605-2.17,1.605c-1.211,0-3.066-0.621-4.207-2.427
	c-0.29-0.457-0.507-0.134-0.254,0.27l1.377,2.732c0.018,0.032,0.119,0.344,0.245,0.344c0.239,0,0.158-0.746,1.009-0.746
	c0.225,0,0.903,0.146,1.813,0.146c1.921,0,3.85-1.098,3.85-2.958c0-3.325-6.521-1.972-6.521-4.293c0-1.087,1.048-1.473,2.098-1.473
	c1.294,0,2.645,0.961,3.43,2.083c0.354,0.518,0.602,0.313,0.354-0.116L285.289,73.425z"/>
<path style="fill-rule:evenodd;clip-rule:evenodd;fill:#FFFFFF;" d="M284.569,73.243l-0.02,0.074
	c-0.011,0.045-0.024,0.094-0.214,0.094l-0.585-0.081l-1.212-0.139c-2.007,0-4.077,1.146-4.077,3.064
	c0,2.079,2.188,2.588,3.938,2.999c1.561,0.365,2.582,0.661,2.582,1.397c0,0.865-0.941,1.26-1.823,1.26
	c-1.147,0-2.864-0.593-3.922-2.265c-0.368-0.583-0.75-0.343-0.791-0.312c-0.256,0.181-0.271,0.586-0.033,0.963l1.362,2.694
	c0.052,0.15,0.199,0.547,0.546,0.547c0.284,0,0.414-0.257,0.486-0.4c0.105-0.214,0.18-0.354,0.521-0.354l0.314,0.032l1.499,0.108
	c2.032,0,4.187-1.158,4.187-3.306c0-2.098-2.199-2.579-3.965-2.968c-1.546-0.337-2.557-0.611-2.557-1.325
	c0-1.044,1.348-1.114,1.761-1.114c1.253,0,2.477,0.966,3.155,1.927c0.422,0.617,0.773,0.456,0.871,0.383
	c0.186-0.121,0.311-0.425,0.063-0.88l-1.064-2.352l-0.02-0.065c-0.063-0.127-0.196-0.433-0.511-0.433
	C284.702,72.793,284.603,73.13,284.569,73.243 M279.6,81.138c0.471,0.434,0.981,0.753,1.483,0.984
	c-0.383,0.072-0.619,0.267-0.754,0.465C280.268,82.448,279.96,81.847,279.6,81.138 M285.664,80.652c0-1.354-1.58-1.729-3.106-2.087
	c-1.997-0.47-3.415-0.905-3.415-2.31c0-0.812,0.531-1.428,1.272-1.835c-0.176,0.258-0.292,0.546-0.292,0.906
	c0,1.337,1.575,1.686,3.096,2.022c2.007,0.435,3.43,0.855,3.43,2.271c0,0.902-0.554,1.602-1.351,2.043
	C285.521,81.368,285.664,81.044,285.664,80.652 M285.049,73.752c0.069,0.157,0.259,0.585,0.524,1.153
	c-0.332-0.317-0.715-0.594-1.119-0.818C284.734,74.05,284.921,73.938,285.049,73.752"/>
<path style="fill-rule:evenodd;clip-rule:evenodd;fill:#FFFFFF;" d="M169.499,78.177c0.655,0.025,1.19,0.025,1.561,0.025
	c1.694,0,4.17-0.185,4.17-2.193c0-1.154-1.063-2.247-3.842-2.247h-5.332c-0.115,0-0.332,0-0.332,0.147
	c0,0.157,0.172,0.157,0.458,0.157c1.292,0,1.343,0.644,1.343,1.699v4.583c0,1.07-0.051,1.703-1.343,1.703
	c-0.286,0-0.458,0-0.458,0.171c0,0.142,0.217,0.142,0.332,0.142h5.193c0.152,0,0.38,0,0.38-0.158c0-0.154-0.151-0.154-0.284-0.154
	h-0.42c-1.337,0-1.412-0.583-1.426-1.655V78.177z M169.499,75.932c0-1.27,0-1.865,1.561-1.865c1.09,0,1.956,0.456,1.956,1.928
	c0,1.699-1.196,1.894-2.051,1.894c-0.473,0-1.011-0.021-1.466-0.028V75.932z"/>
<path style="fill:#FFFFFF;" d="M166.055,73.411c-0.595,0-0.677,0.306-0.677,0.498c0,0.521,0.516,0.521,0.803,0.521
	c0.96,0,1.002,0.275,1.002,1.335v4.583c0,1.075-0.042,1.349-1.002,1.349c-0.287,0-0.803,0-0.803,0.524
	c0,0.182,0.082,0.491,0.677,0.491h5.193c0.592,0,0.725-0.276,0.725-0.506c0-0.192-0.087-0.51-0.629-0.51h-0.42
	c-1.03,0-1.076-0.273-1.08-1.306v-1.857c0.421,0.003,1.215,0.017,1.215,0.017c1.229,0,4.51,0,4.51-2.543
	c0-0.61-0.294-2.597-4.182-2.597H166.055z M171.387,74.112c2.186,0,3.503,0.709,3.503,1.896c0,1.271-1.185,1.833-3.831,1.833
	l-1.893-0.033l-0.01,0.368v2.221c0.01,0.682,0.07,1.253,0.448,1.612h-2.148c0.416-0.404,0.416-1.05,0.416-1.66v-4.583
	c0-0.601,0-1.243-0.416-1.653H171.387z"/>
<path style="fill:#FFFFFF;" d="M169.157,75.932v2.272l1.808,0.032c1.584,0,2.397-0.754,2.397-2.242c0-1.468-0.819-2.276-2.303-2.276
	C169.157,73.718,169.157,74.69,169.157,75.932 M169.844,75.932c0-1.277,0-1.5,1.215-1.5c1.118,0,1.619,0.479,1.619,1.563
	c0,1.074-0.516,1.534-1.714,1.534c0,0-0.729-0.006-1.12-0.021V75.932z"/>
<path style="fill-rule:evenodd;clip-rule:evenodd;fill:#FFFFFF;" d="M156.988,77.842h0.652l2.529,4.12
	c0.131,0.232,0.247,0.401,0.482,0.401h3.027c0.107,0,0.254-0.008,0.254-0.132c0-0.172-0.225-0.18-0.372-0.18
	c-1.117-0.071-1.521-0.887-2.061-1.649l-1.679-2.735c2.218-0.185,3.022-1.095,3.022-2.165c0-1.225-1.303-2.077-3.564-2.077h-5.778
	c-0.105,0-0.329,0-0.329,0.146c0,0.165,0.168,0.165,0.447,0.165c1.404,0,1.398,0.643,1.398,1.708v4.845
	c0,1.051,0.006,1.763-1.294,1.763c-0.271,0-0.457,0-0.457,0.171c0,0.141,0.234,0.141,0.339,0.141h4.889c0.11,0,0.335,0,0.335-0.141
	c0-0.171-0.175-0.171-0.455-0.171c-1.408,0-1.387-0.712-1.387-1.763V77.842z M156.966,75.59c0-1.253,0-1.854,1.568-1.854
	c1.085,0,1.952,0.454,1.952,1.927c0,1.699-1.199,1.89-2.055,1.89c-0.478,0-1.006-0.003-1.466-0.025V75.59z"/>
<path style="fill:#FFFFFF;" d="M153.501,73.076c-0.611,0-0.679,0.347-0.679,0.496c0,0.524,0.518,0.524,0.797,0.524
	c0.45,0,0.742,0.071,0.88,0.211c0.176,0.178,0.176,0.59,0.176,1.103v4.879c0,0.581,0,1.016-0.186,1.214
	c-0.134,0.129-0.387,0.194-0.766,0.194c-0.271,0-0.792,0-0.792,0.524c0,0.147,0.067,0.491,0.674,0.491h4.889
	c0.6,0,0.68-0.31,0.68-0.491c0-0.524-0.52-0.524-0.8-0.524c-0.43,0-0.719-0.075-0.859-0.224c-0.19-0.186-0.193-0.598-0.193-1.132
	v-2.14h0.132c0.187,0.296,2.428,3.95,2.428,3.95c0.142,0.235,0.334,0.561,0.771,0.561h3.027c0.565,0,0.604-0.402,0.604-0.481
	c0-0.16-0.076-0.534-0.722-0.534c-0.785-0.052-1.134-0.56-1.574-1.193l-0.221-0.304c0,0-0.976-1.624-1.369-2.262
	c2.386-0.364,2.788-1.662,2.788-2.437c0-1.475-1.528-2.426-3.905-2.426H153.501z M159.28,73.784c1.951,0,3.229,0.674,3.229,1.718
	c0,1.316-1.483,1.708-2.707,1.808l-0.573,0.048l1.981,3.236c0.011,0.025,0.219,0.318,0.219,0.318
	c0.272,0.393,0.583,0.799,1.012,1.091c-0.872,0-1.788,0.007-1.788,0.007c-0.038,0-0.06-0.01-0.19-0.228l-2.642-4.286h-1.179v2.822
	c0,0.692,0,1.26,0.396,1.661c0.009,0.007,0.031,0.013,0.048,0.03h-2.132c0.007-0.007,0.017-0.007,0.017-0.01
	c0.381-0.398,0.381-0.979,0.381-1.654V75.41c0-0.674,0-1.22-0.372-1.605c-0.009-0.016-0.029-0.016-0.033-0.021H159.28z"/>
<path style="fill:#FFFFFF;" d="M156.624,75.59v2.287l1.809,0.029c1.593,0,2.395-0.745,2.395-2.243c0-1.47-0.81-2.277-2.292-2.277
	C156.624,73.386,156.624,74.363,156.624,75.59 M157.311,75.59c0-1.265,0-1.492,1.224-1.492c1.115,0,1.609,0.486,1.609,1.565
	c0,1.078-0.507,1.53-1.712,1.53c0,0-0.729-0.007-1.121-0.007V75.59z"/>
<path style="fill-rule:evenodd;clip-rule:evenodd;fill:#FFFFFF;" d="M242.125,77.842h0.66l2.531,4.12
	c0.129,0.232,0.23,0.401,0.479,0.401h3.022c0.111,0,0.255-0.008,0.255-0.132c0-0.172-0.222-0.18-0.371-0.18
	c-1.113-0.071-1.513-0.887-2.062-1.649l-1.674-2.735c2.223-0.185,3.021-1.095,3.021-2.165c0-1.225-1.311-2.077-3.58-2.077h-5.763
	c-0.111,0-0.339,0-0.339,0.146c0,0.165,0.175,0.165,0.453,0.165c1.404,0,1.394,0.643,1.394,1.708v4.845
	c0,1.051,0.011,1.763-1.28,1.763c-0.285,0-0.46,0-0.46,0.171c0,0.141,0.232,0.141,0.332,0.141h4.895c0.104,0,0.334,0,0.334-0.141
	c0-0.171-0.175-0.171-0.454-0.171c-1.408,0-1.395-0.712-1.395-1.763V77.842z M242.112,75.59c0-1.253,0-1.854,1.561-1.854
	c1.088,0,1.961,0.454,1.961,1.927c0,1.699-1.205,1.89-2.057,1.89c-0.48,0-1.011-0.003-1.465-0.025V75.59z"/>
<path style="fill:#FFFFFF;" d="M238.646,73.076c-0.609,0-0.677,0.347-0.677,0.496c0,0.524,0.513,0.524,0.791,0.524
	c0.449,0,0.747,0.071,0.883,0.211c0.178,0.178,0.178,0.59,0.178,1.103v4.879c0,0.587,0,1.016-0.189,1.214
	c-0.126,0.129-0.381,0.194-0.758,0.194c-0.279,0-0.797,0-0.797,0.524c0,0.182,0.085,0.491,0.669,0.491h4.895
	c0.59,0,0.677-0.31,0.677-0.491c0-0.524-0.517-0.524-0.797-0.524c-0.436,0-0.729-0.075-0.864-0.224
	c-0.185-0.193-0.19-0.604-0.19-1.139v-2.133h0.129c0.187,0.296,2.438,3.952,2.438,3.952c0.126,0.218,0.321,0.559,0.765,0.559h3.022
	c0.574,0,0.599-0.402,0.599-0.481c0-0.16-0.069-0.534-0.715-0.534c-0.782-0.052-1.13-0.56-1.585-1.193l-0.202-0.304
	c0,0-0.985-1.624-1.378-2.262c2.393-0.364,2.797-1.662,2.797-2.437c0-1.475-1.533-2.426-3.926-2.426H238.646z M244.409,73.784
	c1.971,0,3.239,0.674,3.239,1.718c0,1.316-1.47,1.708-2.707,1.808l-0.567,0.048l1.979,3.236c0.011,0.025,0.216,0.318,0.216,0.318
	c0.276,0.393,0.589,0.799,1.012,1.091c-0.875,0-1.783,0.007-1.783,0.007c-0.037,0-0.06,0-0.188-0.226l-2.633-4.288h-1.188v2.814
	c0,0.695,0.007,1.268,0.386,1.669c0.015,0.007,0.042,0.013,0.049,0.03h-2.122c0.003-0.007,0.01-0.007,0.015-0.009
	c0.377-0.397,0.388-0.98,0.388-1.655V75.41c0-0.674-0.011-1.22-0.376-1.605c-0.012-0.016-0.026-0.016-0.041-0.021H244.409z"/>
<path style="fill:#FFFFFF;" d="M241.765,75.59v2.287l1.812,0.029c1.587,0,2.395-0.745,2.395-2.243c0-1.47-0.813-2.277-2.299-2.277
	C241.765,73.386,241.765,74.363,241.765,75.59 M242.449,75.59c0-1.265,0-1.492,1.224-1.492c1.117,0,1.61,0.486,1.61,1.565
	c0,1.078-0.511,1.53-1.706,1.53c0,0-0.732-0.007-1.128-0.007V75.59z"/>
<path style="fill-rule:evenodd;clip-rule:evenodd;fill:#FFFFFF;" d="M198.692,77.842h0.649l2.538,4.12
	c0.129,0.233,0.231,0.402,0.479,0.402h3.023c0.108,0,0.252-0.009,0.252-0.133c0-0.173-0.223-0.18-0.374-0.18
	c-1.105-0.071-1.507-0.887-2.06-1.648l-1.68-2.736c2.232-0.185,3.029-0.91,3.029-1.979c0-1.21-1.312-2.07-3.583-2.07h-5.765
	c-0.103,0-0.332,0-0.332,0.144c0,0.163,0.174,0.163,0.458,0.163c1.395,0,1.39,0.647,1.39,1.707v4.658
	c0,1.051,0.005,1.763-1.286,1.763c-0.283,0-0.449,0-0.449,0.17c0,0.143,0.22,0.143,0.326,0.143h4.895c0.104,0,0.335,0,0.335-0.143
	c0-0.17-0.18-0.17-0.46-0.17c-1.404,0-1.387-0.712-1.387-1.763V77.842z M198.67,75.782c0-1.26,0-1.858,1.568-1.858
	c1.083,0,1.957,0.447,1.957,1.93c0,1.699-1.212,1.699-2.073,1.699c-0.461,0-0.999-0.003-1.452-0.024V75.782z"/>
<path style="fill:#FFFFFF;" d="M195.203,73.26c-0.588,0-0.675,0.313-0.675,0.502c0,0.517,0.517,0.517,0.801,0.517
	c0.444,0,0.739,0.078,0.877,0.221c0.167,0.18,0.167,0.583,0.167,1.099v4.69c0,0.581,0,1.018-0.188,1.215
	c-0.116,0.129-0.375,0.194-0.752,0.194c-0.283,0-0.802,0-0.802,0.525c0,0.181,0.094,0.49,0.679,0.49h4.895
	c0.604,0,0.673-0.344,0.673-0.49c0-0.525-0.518-0.525-0.798-0.525c-0.432,0-0.719-0.076-0.859-0.223
	c-0.191-0.188-0.191-0.6-0.191-1.133v-2.14h0.131c0.183,0.295,2.423,3.95,2.423,3.95c0.142,0.236,0.336,0.561,0.776,0.561h3.024
	c0.566,0,0.594-0.401,0.594-0.481c0-0.16-0.065-0.534-0.716-0.534c-0.782-0.051-1.132-0.56-1.576-1.193l-0.211-0.304
	c0,0-0.965-1.589-1.37-2.239c1.073-0.142,2.797-0.566,2.797-2.273c0-0.732-0.398-1.376-1.116-1.801
	c-0.684-0.408-1.649-0.627-2.816-0.627H195.203z M200.967,73.974c1.041,0,1.898,0.184,2.472,0.525
	c0.355,0.212,0.774,0.583,0.774,1.188c0,0.607-0.284,1.426-2.712,1.623l-0.571,0.047l1.984,3.236
	c0.007,0.025,0.219,0.317,0.219,0.317c0.271,0.395,0.577,0.8,1.013,1.092c-0.878,0-1.788,0.007-1.788,0.007
	c-0.043,0-0.058,0-0.198-0.228l-2.629-4.287h-1.186v2.823c0,0.692,0.01,1.259,0.394,1.662c0.015,0.006,0.031,0.012,0.046,0.029
	h-2.124c0-0.007,0.005-0.007,0.017-0.011c0.376-0.396,0.385-0.978,0.385-1.652v-4.749c0-0.667-0.009-1.228-0.38-1.604
	c-0.005-0.012-0.021-0.012-0.033-0.021H200.967z"/>
<path style="fill:#FFFFFF;" d="M198.327,75.782v2.095l1.796,0.03c0.845,0,2.413,0,2.413-2.054c0-0.798-0.235-1.401-0.699-1.792
	c-0.385-0.324-0.923-0.489-1.598-0.489C198.327,73.572,198.327,74.545,198.327,75.782 M199.012,75.782c0-1.271,0-1.504,1.227-1.504
	c0.52,0,0.908,0.118,1.17,0.331c0.302,0.254,0.442,0.661,0.442,1.244c0,1.255-0.686,1.34-1.729,1.34c0,0-0.707-0.007-1.11-0.007
	V75.782z"/>
<path style="fill-rule:evenodd;clip-rule:evenodd;fill:#FFFFFF;" d="M93.411,76.864h0.802l3.08,5.005
	c0.161,0.277,0.29,0.488,0.589,0.488h3.677c0.132,0,0.315-0.023,0.315-0.162c0-0.212-0.276-0.221-0.453-0.221
	c-1.359-0.084-1.852-1.083-2.517-1.998l-2.033-3.338c2.698-0.22,3.676-1.334,3.676-2.638c0-1.478-1.594-2.511-4.345-2.511H89.18
	c-0.134,0-0.414,0-0.414,0.171c0,0.206,0.209,0.206,0.559,0.206c1.709,0,1.689,0.776,1.689,2.063v5.902
	c0,1.288,0.02,2.143-1.569,2.143c-0.335,0-0.544,0-0.544,0.197c0,0.186,0.279,0.186,0.408,0.186h5.944c0.135,0,0.411,0,0.411-0.186
	c0-0.197-0.217-0.197-0.556-0.197c-1.71,0-1.697-0.854-1.697-2.143V76.864z M93.391,74.123c0-1.542,0-2.256,1.909-2.256
	c1.321,0,2.38,0.542,2.38,2.346c0,2.056-1.463,2.296-2.51,2.296c-0.566,0-1.219-0.015-1.779-0.033V74.123z"/>
<path style="fill:#FFFFFF;" d="M89.179,71.135c-0.655,0-0.756,0.33-0.756,0.525c0,0.559,0.567,0.559,0.902,0.559
	c0.573,0,0.933,0.093,1.119,0.278c0.229,0.243,0.229,0.756,0.229,1.4v5.935c0,0.729,0,1.271-0.246,1.532
	c-0.169,0.17-0.488,0.253-0.983,0.253c-0.325,0-0.892,0-0.892,0.555c0,0.2,0.099,0.537,0.757,0.537h5.944
	c0.659,0,0.753-0.337,0.753-0.537c0-0.555-0.563-0.555-0.899-0.555c-0.549,0-0.918-0.087-1.103-0.284
	c-0.243-0.256-0.247-0.772-0.247-1.437V77.21h0.267C94.213,77.522,97,82.06,97,82.06c0.159,0.269,0.384,0.649,0.881,0.649h3.678
	c0.61,0,0.655-0.397,0.655-0.514c0-0.215-0.113-0.578-0.793-0.578c-1-0.063-1.435-0.688-1.978-1.482l-0.266-0.377
	c0,0-1.318-2.155-1.738-2.842c2.957-0.415,3.456-1.975,3.456-2.915c0-1.741-1.843-2.866-4.694-2.866H89.179z M96.201,71.842
	c1.263,0,2.316,0.226,3.036,0.655c0.44,0.27,0.969,0.74,0.969,1.504c0,1.661-1.827,2.161-3.363,2.282l-0.562,0.051l2.333,3.829
	c0.018,0.023,0.263,0.374,0.263,0.374c0.394,0.568,0.81,1.119,1.435,1.464h-2.431c-0.087,0-0.124-0.021-0.299-0.315l-3.187-5.177
	h-1.326v3.355c0,0.825,0.009,1.503,0.455,1.968c0.075,0.079,0.19,0.113,0.289,0.169h-3.14c0.075-0.056,0.17-0.076,0.239-0.137
	c0.44-0.469,0.445-1.162,0.445-1.968v-5.999c0-0.799-0.005-1.459-0.433-1.9c-0.064-0.071-0.181-0.103-0.272-0.155H96.201z"/>
<path style="fill:#FFFFFF;" d="M93.048,74.123v2.7l2.122,0.041c1.895,0,2.854-0.9,2.854-2.651c0-1.767-0.942-2.703-2.725-2.703
	C93.048,71.51,93.048,72.603,93.048,74.123 M93.731,74.123c0-1.542,0-1.904,1.568-1.904c1.392,0,2.036,0.637,2.036,1.994
	s-0.644,1.944-2.165,1.944c0,0-0.996-0.025-1.439-0.025V74.123z"/>
<path style="fill-rule:evenodd;clip-rule:evenodd;fill:#FFFFFF;" d="M116.732,2.526l7.15,8.294c0.17,0.351,0.26,0.664,0.26,0.926
	c0,0.736-0.41,1.029-1.224,0.894l-3.238-0.529l-6.025,1.832v10.184h1.378l3.145-4.478c0.301-0.42,0.685-0.634,1.179-0.634
	c0.368,0,0.7,0.172,1,0.499l4.714,5.081c0.169,0.168,0.253,0.407,0.253,0.697c0,0.487-0.253,0.724-0.77,0.724h-10.899v3.288
	c7.44,2.634,11.157,6.472,11.157,11.519c0,3.363-1.572,5.046-4.716,5.046c-2.197,0-3.449-1.259-3.744-3.786
	c-0.684-4.36-1.582-7.099-2.697-8.227v18.68l0.32,6.609c0.104,0.638,0,1.18-0.32,1.623c-0.305,0.435-1.358,1.039-3.174,1.792
	c-1.816,0.775-3.131,1.16-3.94,1.167c-0.936,0-1.39-0.691-1.351-2.059l0.255-9.268v-8.955l-0.119-0.133
	c-3.447,4.514-8.68,8.773-15.716,12.78l-0.835-1.363c3.401-3.474,6.447-7.911,9.144-13.31c2.686-5.402,4.537-10.528,5.541-15.403
	h-7.978c-1.428,0-3.039,0.259-4.814,0.767l-2.245-2.656h17.022v-8.294c-3.904,0.859-8.351,1.546-13.328,2.06l-0.645-1.733
	C99.463,13.576,107.882,9.025,116.732,2.526 M136.832,2.585l10.42,3.385c0.53,0.222,0.799,0.635,0.799,1.232
	c0,0.437-0.393,0.909-1.183,1.39c-0.794,0.492-1.188,1.296-1.188,2.422v46.2c0,3.639-3.561,6.488-10.674,8.561
	c-0.428-3.226-0.997-5.455-1.707-6.691c-0.68-1.266-2.721-2.584-6.114-3.953l0.315-1.695c3.467,0.594,6.162,0.896,8.081,0.896
	c1.262,0,1.894-0.69,1.894-2.061V9.521C137.476,7.115,137.262,4.799,136.832,2.585 M125.546,11.416l9.461,3.188
	c0.465,0.245,0.703,0.57,0.703,0.993c0,0.377-0.342,0.8-1.026,1.261c-0.664,0.464-0.994,1.265-0.994,2.394V40.46l0.32,6.035
	c0.21,1.311-0.841,2.393-3.176,3.252c-2.303,0.847-3.564,1.264-3.776,1.264c-0.833,0-1.253-0.462-1.253-1.391l0.257-8.231V18.617
	C126.104,16.847,125.939,14.45,125.546,11.416"/>
<path style="fill-rule:evenodd;clip-rule:evenodd;fill:#FFFFFF;" d="M204.001,9.919l3.647-4.741c0.237-0.379,0.58-0.562,1.023-0.562
	c0.426,0,0.767,0.115,1.027,0.368l5.835,5.535c0.107,0.176,0.164,0.347,0.164,0.532c0,0.509-0.363,0.767-1.089,0.767h-21.806v5.436
	h8.338l3.501-4.148c0.226-0.199,0.474-0.294,0.739-0.294c0.336,0,0.675,0.142,1.017,0.429l5.257,4.651
	c0.169,0.146,0.258,0.332,0.258,0.555c0,0.489-0.234,0.739-0.707,0.739h-38.02c-1.709,0-3.233,0.282-4.58,0.859l-2.639-2.791h18.63
	v-5.436h-13.784c-1.538,0-3.196,0.389-4.969,1.158l-2.817-3.057h21.57V7.137c0-2.41-0.082-4.267-0.253-5.585l10.26,3
	c0.369,0.175,0.544,0.467,0.544,0.886c0,0.45-0.397,0.903-1.183,1.364c-0.775,0.447-1.162,0.986-1.162,1.621v1.497H204.001z
	 M192.873,31.793h-14.04c-0.063,1.132-0.242,1.868-0.548,2.222c-0.298,0.352-1.13,0.714-2.499,1.064
	c-1.347,0.355-2.658,0.527-3.95,0.527c-0.994,0-1.447-0.383-1.341-1.162c0.252-2.032,0.39-3.814,0.39-5.337v-3.688
	c0-1.149-0.138-2.894-0.39-5.242l8.143,2.59h20.929l2.954-2.922c0.275-0.245,0.59-0.366,0.929-0.366
	c0.365,0,0.782,0.144,1.255,0.431l4.588,2.857c0.233,0.362,0.346,0.741,0.35,1.156c0,0.359-0.29,0.724-0.869,1.104
	c-0.574,0.372-0.869,0.752-0.869,1.131v3.081l0.131,2.158c0.17,0.883-0.413,1.623-1.76,2.219c-1.325,0.581-3.049,0.864-5.164,0.864
	c-0.856,0-1.278-0.292-1.278-0.9l0.094-1.787h-6.251v0.23l6.827,2.562c0.641,0.312,0.963,0.613,0.963,0.923
	c0,0.492-0.406,0.727-1.215,0.727c-0.367,0-0.866,0.35-1.508,1.028c-0.623,0.687-1.089,1.184-1.386,1.466h10.905l3.938-5.084
	c0.21-0.277,0.54-0.425,0.958-0.425c0.39,0,0.729,0.148,1.005,0.425l5.508,5.451c0.105,0.178,0.159,0.362,0.159,0.567
	c0,0.657-0.336,0.992-1.023,0.992h-40.617v0.137l2.886,0.861c0.393,0.111,0.577,0.315,0.577,0.627c0,0.49-0.28,0.833-0.832,1.031
	c-0.94,0.088-1.513,1.061-1.737,2.922h3.118l3.328-3.092c0.412-0.349,0.805-0.524,1.186-0.524c0.287,0,0.545,0.088,0.776,0.262
	l4.068,2.989c0.466,0.445,0.704,0.862,0.704,1.259c0,0.372-0.375,0.819-1.118,1.325c-0.731,0.49-1.113,1.081-1.157,1.765
	c-0.084,2.874-0.438,5.466-1.055,7.757c-0.62,2.286-1.523,3.912-2.694,4.886c-1.187,0.996-3.457,1.766-6.864,2.324
	c0.135-2.029-0.159-3.488-0.869-4.354c-0.676-0.835-2.063-1.61-4.13-2.32l0.519-1.363c2.964,0.486,4.615,0.731,4.933,0.731
	c0.916,0,1.568-0.731,1.955-2.187c0.374-1.465,0.626-3.983,0.734-7.568h-3.878c-0.989,7.946-7.139,13.306-18.465,16.096
	l-0.771-0.926c6.889-5,10.774-10.056,11.678-15.17h-3.342c-1.199,0-2.269,0.252-3.198,0.764l-2.763-2.654h9.521
	c0.237-2.619,0.303-4.469,0.194-5.578h-5.646c-1.662,0-3.041,0.269-4.129,0.796l-2.571-2.722h21.391
	c-0.079-0.224-0.213-0.946-0.423-2.186c-0.217-1.239-0.644-2.206-1.28-2.898l0.731-1.086c2.717,0.461,4.545,0.967,5.487,1.525
	c0.959,0.554,1.443,1.339,1.443,2.358l-0.159,2.287h5.383C192.485,36.321,192.873,34.005,192.873,31.793 M178.895,29.898h21.03
	v-5.241h-21.03V29.898z M211.914,41.81l4.492,3.464c0.337,0.234,0.511,0.571,0.511,0.987c0,0.355-0.332,0.873-0.994,1.565
	c-0.645,0.687-0.964,1.282-0.964,1.794v4.747l0.386,5.368c0,1.151-0.908,2.072-2.722,2.728c-1.82,0.693-3.22,1.027-4.208,1.028
	c-0.332,0-0.666-0.178-0.996-0.527c-0.293-0.337-0.428-0.653-0.414-0.963l0.136-4.279h-6.512l0.13,3.651
	c0,0.546-0.202,0.992-0.609,1.323c-0.385,0.351-1.211,0.74-2.462,1.161c-1.244,0.442-2.248,0.668-3.02,0.668
	c-0.814,0-1.363-0.08-1.633-0.241c-0.283-0.128-0.417-0.46-0.417-0.989l0.063-6.477v-9.159l-0.196-5.576l8.209,3.454h5.961
	l3.431-3.519c0.236-0.371,0.544-0.566,0.935-0.566C211.333,41.452,211.635,41.577,211.914,41.81 M200.694,55.79h6.507v-8.33h-6.507
	V55.79z"/>
<path style="fill-rule:evenodd;clip-rule:evenodd;fill:#FFFFFF;" d="M241.992,46.166h-0.13v4.052l0.187,9.787
	c0.043,0.551-0.106,1.044-0.44,1.466c-0.355,0.416-1.363,0.882-3.057,1.39c-1.682,0.504-2.77,0.759-3.267,0.759
	c-0.899,0-1.328-0.464-1.311-1.423l0.257-13.179V9.386l-0.324-6.602l8.912,4.418h6.989l3.21-3.751
	c0.229-0.309,0.564-0.467,0.989-0.467c0.348,0,0.623,0.096,0.834,0.268l4.614,4.012c0.369,0.247,0.548,0.579,0.548,1.027
	c0,0.36-0.144,0.647-0.423,0.872l-1.629,1.357v5.578l0.326,4.21c0.076,0.736-0.209,1.229-0.871,1.491l3.746,2.591
	c0.22,0.227,0.326,0.448,0.326,0.663c0,0.533-0.771,0.878-2.316,1.036l-1.144,1.294h6.214l2.952-3.654
	c0.235-0.262,0.53-0.4,0.899-0.4c0.254,0,0.499,0.093,0.739,0.27l6.374,4.677c0.23,0.202,0.351,0.432,0.351,0.697
	c0,0.357-0.492,0.746-1.471,1.196c-0.984,0.419-1.639,0.722-1.953,0.897c-2.332,2.406-3.919,3.946-4.754,4.619
	c1.733,0.614,5.239,0.978,10.517,1.088V20.808h-8.908v0.729c0,0.469-0.155,0.833-0.444,1.099c-0.301,0.24-1.216,0.605-2.731,1.093
	c-1.491,0.486-2.605,0.731-3.331,0.731c-0.895,0-1.34-0.451-1.319-1.366l0.196-6.166V9.79l-0.256-7.205l8.784,4.617h7.082
	l3.561-3.885c0.215-0.263,0.464-0.398,0.74-0.398c0.253,0,0.527,0.113,0.824,0.333l5.007,3.756c0.346,0.256,0.511,0.601,0.511,1.018
	c0,0.337-0.127,0.625-0.381,0.866l-1.698,1.628v44.675c0,2.607-0.804,4.575-2.407,5.903c-1.603,1.328-3.994,2.348-7.176,3.058
	c0.08-3.635-2.112-6.063-6.572-7.338l0.123-1.028c2.267,0.511,4.457,0.766,6.57,0.766c1.217,0,1.826-0.544,1.826-1.631V39.23
	c-2.239,1.173-3.33,2.912-3.27,5.21c-0.513-0.087-0.864-0.179-1.063-0.272c0,0.427-0.578,0.987-1.752,1.7v3.552l0.191,2.783
	c0.061,0.492-0.094,0.902-0.449,1.231c-0.35,0.332-1.379,0.779-3.111,1.331c-1.728,0.546-2.875,0.828-3.432,0.828
	c-0.77,0-1.152-0.388-1.152-1.163v-1.192h-8.205v2.217c0,1.02-1.191,1.759-3.556,2.222c-2.353,0.471-3.592,0.701-3.725,0.701
	c-0.702,0-1.04-0.408-0.996-1.231l0.329-6.503V45.6c-1.443,0.402-3.24,0.831-5.394,1.295L241.992,46.166z M241.862,12.709h8.456
	v-3.62h-8.456V12.709z M268.979,12.709h8.908v-3.62h-8.908V12.709z M241.862,18.884h8.456v-4.28h-8.456V18.884z M277.887,14.604
	h-8.908v4.28h8.908V14.604z M250.319,20.808h-8.457v16.097c4.447-3.628,7.875-7.999,10.287-13.106
	c-0.427,0.037-0.664,0.06-0.709,0.06c-0.81,0-1.206-0.404-1.184-1.223L250.319,20.808z M262.987,29.304h-6.635
	c1.729,1.638,2.933,2.675,3.621,3.117C261.039,31.448,262.047,30.413,262.987,29.304 M242.048,37.671h-0.187v7.266
	c5.229-2.461,10.078-5.566,14.548-9.331c-1.02-1.188-1.942-2.507-2.757-3.951c-3.379,3.164-7.095,5.484-11.154,6.941L242.048,37.671
	z M256.217,42.945h7.633l0.832-1.358c-1.282-0.54-2.375-1.099-3.27-1.699c-0.705,0.38-2.713,1.289-6.022,2.729L256.217,42.945z
	 M255.645,51.312h8.205v-6.439h-8.205V51.312z"/>
</svg>
